# xmcd
#
# Track frame offsets:
#	150
#	10846
#	24310
#	36730
#	54859
#	70329
#	83354
#	96381
#	114428
#	125702
#
# Disc length: 1828 seconds
#
# Revision: 1
# Processed by: cddbd v1.5.1PL0 Copyright (c) Steve Scherf et al.
# Submitted via: audiograbber 1.83.01
#
DISCID=7c07220a
DTITLE=Becky HOBBS - Hottest "Ex" In Texas
DYEAR=1900
DGENRE=Country
TTITLE0=Hottest "Ex" In Texas
TTITLE1=Talk Back Trembling Lips
TTITLE2=Oklahoma Heart
TTITLE3=Woman Enough To Forgive You
TTITLE4=Pardon Me (Haven't We Loved Somewhere Before)
TTITLE5=Ready For The Rodeo
TTITLE6=Wheels In Emotion
TTITLE7=I Can't Say Goodbye To You
TTITLE8=Rockin' At The Rendezvous
TTITLE9=You Made Me This Way
EXTD=
EXTT0=
EXTT1=
EXTT2=
EXTT3=
EXTT4=
EXTT5=
EXTT6=
EXTT7=
EXTT8=
EXTT9=
PLAYORDER=
